<?xml version="1.0" encoding="utf-8"?>
<!-- Generator: Adobe Illustrator 15.1.0, SVG Export Plug-In . SVG Version: 6.00 Build 0)  -->
<!DOCTYPE svg PUBLIC "-//W3C//DTD SVG 1.1//EN" "http://www.w3.org/Graphics/SVG/1.1/DTD/svg11.dtd">
<svg version="1.1" id="Layer_1" xmlns="http://www.w3.org/2000/svg" xmlns:xlink="http://www.w3.org/1999/xlink" x="0px" y="0px"
	 width="800px" height="288px" viewBox="0 0 800 288" enable-background="new 0 0 800 288" xml:space="preserve">
<path fill-rule="evenodd" clip-rule="evenodd" fill="#FFFFFF" d="M29.395,213.539H0V288h73.496v-29.781H29.395V213.539z
	 M245.067,123.867c-2.497-3.859-5.824-6.992-9.89-9.328c-4.062-2.335-9.215-3.532-15.313-3.532c-5.687,0-10.688,1.137-14.848,3.372
	c-4.16,2.23-7.605,5.27-10.253,9.023c-2.649,3.734-4.649,8.11-5.938,13.007c-1.296,4.872-1.945,9.993-1.945,15.217
	c0,5.248,0.707,10.334,2.097,15.155c1.382,4.859,3.64,9.242,6.68,13.031c3.046,3.797,7.023,6.875,11.823,9.156
	c4.793,2.273,10.594,3.438,17.258,3.438c4.476,0,8.895-0.751,13.133-2.212c4.203-1.445,7.641-2.952,10.242-4.475l0.297-0.166
	v-14.008l-0.906,0.594c-2.809,1.869-6.055,3.673-9.605,5.36c-3.504,1.655-7.985,2.491-13.305,2.491
	c-3.746,0-7.074-0.711-9.883-2.117c-2.832-1.406-5.238-3.266-7.14-5.555c-1.922-2.281-3.434-4.914-4.48-7.836
	c-1-2.75-1.578-5.601-1.715-8.515h50.586v-3.735c0-5.111-0.535-10.202-1.578-15.121C249.36,132.167,247.571,127.714,245.067,123.867
	 M201.367,145.488c0.052-2.007,0.372-4.253,0.938-6.703c0.625-2.664,1.665-5.238,3.113-7.626c1.438-2.367,3.344-4.405,5.695-6.046
	c2.297-1.625,5.152-2.45,8.465-2.45c3.621,0,6.622,0.754,8.949,2.235c2.328,1.495,4.176,3.421,5.503,5.726
	c1.344,2.328,2.29,4.895,2.817,7.609c0.488,2.544,0.762,4.984,0.8,7.254H201.367z M368.16,113.105h-29.191l-0.145,0.367
	c-0.617,1.559-0.926,3.191-0.926,4.855c0,1.672,0.309,3.304,0.926,4.867l0.145,0.367h8.656l-8.969,32.399
	c-0.391,1.39-0.84,3.148-1.344,5.196c-0.48,2.015-0.984,4.211-1.48,6.538c-0.496,2.305-0.961,4.609-1.406,6.907
	c-0.199,1.007-0.387,1.976-0.547,2.898c-0.168-0.923-0.352-1.892-0.551-2.898L332,167.718c-0.438-2.297-0.887-4.484-1.336-6.531
	c-0.438-2.031-0.863-3.782-1.262-5.203l-11.363-42.872H304l-11.52,43.013c-0.391,1.421-0.801,3.171-1.191,5.226l-1.258,6.523
	c-0.438,2.297-0.863,4.609-1.254,6.906c-0.168,0.984-0.328,1.922-0.48,2.812c-0.168-0.922-0.352-1.875-0.535-2.898
	c-0.457-2.328-0.922-4.671-1.418-6.977c-0.488-2.312-0.984-4.515-1.473-6.609c-0.496-2.086-0.941-3.859-1.344-5.281l-9.117-32.242
	h8.957l0.137-0.367c0.617-1.562,0.93-3.196,0.93-4.868c0-1.664-0.312-3.292-0.93-4.855l-0.137-0.367h-30.964l-0.152,0.367
	c-0.625,1.563-0.93,3.192-0.93,4.855c0,1.672,0.312,3.305,0.93,4.868l0.152,0.367h7.656l20.125,67.18h14.031l11.219-41.653
	c0.391-1.304,0.84-3.023,1.336-5.128c0.496-2.102,1.016-4.305,1.566-6.598c0.543-2.336,1.039-4.691,1.488-7.008
	c0.191-1.051,0.375-2.066,0.543-3.035c0.195,0.976,0.395,1.992,0.617,3.051c0.496,2.335,1.016,4.688,1.559,6.985l1.547,6.597
	c0.488,2.113,0.949,3.839,1.336,5.113l11.223,41.66h14.039l19.832-67.171h7.656l0.137-0.368c0.617-1.563,0.93-3.195,0.93-4.868
	c0-1.664-0.312-3.293-0.93-4.855L368.16,113.105z M190.633,91.082c0.609-1.848,0.93-3.68,0.93-5.434c0-1.742-0.312-3.574-0.93-5.429
	l-0.128-0.402h-36.497l-0.128,0.402c-0.598,1.855-0.91,3.687-0.91,5.429c0,1.754,0.312,3.586,0.91,5.434l0.128,0.398h11.832v64.645
	c0,0.508,0.024,1.444,0.083,2.804c0.039,1.352,0.085,2.899,0.144,4.64l0.152,5.539c0.016,0.82,0.024,1.595,0.04,2.329l-1.016-2.343
	c-0.739-1.705-1.488-3.36-2.234-4.972c-0.742-1.592-1.429-3.046-2.078-4.358c-0.648-1.297-1.219-2.415-1.711-3.328l-43.684-76.621
	H87.418l-0.136,0.402c-0.601,1.855-0.915,3.687-0.915,5.429c0,1.754,0.313,3.586,0.915,5.434l0.136,0.398h10.927v87.16H87.418
	l-0.136,0.398c-0.601,1.86-0.915,3.681-0.915,5.43c0,1.767,0.313,3.594,0.915,5.445l0.136,0.398h35.153l0.125-0.398
	c0.617-1.852,0.921-3.679,0.921-5.445c0-1.749-0.312-3.569-0.921-5.43l-0.125-0.391h-11.372v-64.953
	c0-0.703-0.023-1.887-0.078-3.543c-0.046-1.648-0.105-3.449-0.144-5.391c-0.055-1.953-0.098-3.944-0.152-6
	c-0.016-0.855-0.04-1.679-0.071-2.464c0.215,0.488,0.445,0.992,0.672,1.52c0.688,1.562,1.406,3.113,2.145,4.664
	c0.75,1.552,1.488,3.067,2.238,4.512c0.747,1.465,1.418,2.704,2.008,3.696l46.046,80.968h14.953V91.496h11.688L190.633,91.082z
	 M516.023,79.839l-0.391,0.129v8.129c-3.555-3.618-7.57-6.328-11.953-8.089c-4.781-1.919-9.984-2.888-15.445-2.888
	c-8.047,0-15.219,1.711-21.289,5.098c-6.07,3.383-11.211,7.879-15.281,13.36s-7.164,11.847-9.195,18.925
	c-2.031,7.066-3.045,14.411-3.045,21.84c0,7.715,1.045,15.09,3.123,21.914c2.078,6.852,5.281,12.915,9.5,18.053
	c4.234,5.143,9.625,9.259,16.047,12.229c6.406,2.977,13.984,4.468,22.508,4.468c4.26,0,8.344-0.508,12.133-1.522
	c3.766-1.001,7.273-2.218,10.438-3.618c3.18-1.413,6-2.961,8.391-4.632c2.375-1.649,4.281-3.155,5.688-4.47l0.189-0.18v-17.789
	l-1.002,1.101c-1.164,1.274-2.818,2.962-4.938,5c-2.078,2.016-4.656,3.977-7.654,5.853c-3.018,1.866-6.471,3.491-10.25,4.812
	c-3.768,1.32-8.039,1.984-12.689,1.984c-4.648,0-9.156-0.844-13.406-2.516c-4.242-1.656-8.047-4.28-11.328-7.805
	c-3.297-3.522-5.969-8.101-7.953-13.586c-1.977-5.511-2.99-12.253-2.99-20.046c0-5.121,0.584-10.465,1.75-15.848
	c1.162-5.352,3.1-10.29,5.703-14.664c2.609-4.36,6.039-7.985,10.178-10.77c4.133-2.767,9.25-4.177,15.236-4.177
	c4.344,0,8.227,0.642,11.553,1.914c3.305,1.263,6.104,3.032,8.305,5.271c2.203,2.234,3.906,4.891,5.055,7.891
	c1.148,3.023,1.742,6.336,1.742,9.839v7.637l0.422,0.121c4.219,1.222,8.234,1.222,12.453,0l0.414-0.121V79.984l-0.391-0.125
	C524.078,78.64,519.969,78.586,516.023,79.839 M426.619,154.453c-1.82-1.891-4.104-3.522-6.822-4.852
	c-2.688-1.304-5.922-2.479-9.578-3.488l-12.586-3.297c-4.848-1.27-8.359-2.582-10.426-3.902c-1.957-1.25-2.902-3.313-2.902-6.336
	c0-3.816,1.336-6.496,4.078-8.191c2.816-1.739,6.172-2.617,9.984-2.617c3.168,0,5.93,0.465,8.227,1.382
	c2.297,0.922,4.221,2.121,5.734,3.562c1.516,1.43,2.643,3.056,3.336,4.817c0.705,1.773,1.07,3.542,1.07,5.253v3.543l0.357,0.146
	c3.268,1.241,6.846,1.25,10.316,0l0.391-0.137v-26.887l-0.361-0.152c-3-1.208-6.521-1.282-9.889,0l-0.377,0.136v5.449
	c-1.461-1.844-3.529-3.481-6.18-4.883c-3.383-1.774-7.775-2.688-13.07-2.688c-3.191,0-6.379,0.41-9.465,1.227
	c-3.121,0.812-5.977,2.156-8.473,3.98c-2.52,1.839-4.602,4.281-6.168,7.25c-1.566,2.969-2.359,6.589-2.359,10.77
	c0,5.344,1.625,9.645,4.84,12.789c3.16,3.114,7.406,5.407,12.609,6.829l14.637,4.055c2.449,0.695,4.629,1.413,6.465,2.146
	c1.805,0.736,3.359,1.587,4.594,2.547c1.211,0.938,2.117,2.048,2.719,3.313c0.602,1.265,0.906,2.812,0.906,4.625
	c0,3.492-1.398,5.969-4.279,7.579c-2.971,1.657-6.756,2.483-11.275,2.483c-2.887,0-5.672-0.391-8.262-1.172
	c-2.602-0.772-4.906-1.906-6.855-3.367c-1.953-1.438-3.516-3.211-4.648-5.289c-1.137-2.047-1.715-4.342-1.715-6.836v-3.695
	l-0.352-0.141c-2.91-1.18-6.117-1.328-10.023-0.014l-0.391,0.14v29.14l0.359,0.156c2.984,1.195,6.137,1.281,9.727,0l0.387-0.125
	v-5.789c2.445,2.603,5.469,4.555,9,5.853c3.992,1.46,8.438,2.21,13.215,2.21c4.062,0,7.902-0.508,11.404-1.523
	c3.506-1,6.576-2.477,9.131-4.359c2.586-1.882,4.617-4.196,6.086-6.852c1.469-2.688,2.221-5.709,2.221-8.99
	c0-3.439-0.439-6.485-1.291-9.033C429.814,158.625,428.453,156.352,426.619,154.453 M735.453,0v11.664h53.031V65.41H800V0H735.453z
	 M643.961,123.867c-2.506-3.859-5.836-6.992-9.881-9.328c-4.08-2.335-9.221-3.532-15.312-3.532c-5.689,0-10.689,1.137-14.838,3.372
	c-4.164,2.23-7.607,5.27-10.271,9.023c-2.641,3.734-4.635,8.11-5.922,13.007c-1.299,4.872-1.955,9.993-1.955,15.217
	c0,5.248,0.703,10.334,2.094,15.155c1.398,4.859,3.656,9.242,6.688,13.031c3.055,3.797,7.023,6.875,11.822,9.156
	c4.787,2.273,10.6,3.438,17.264,3.438c4.477,0,8.906-0.751,13.133-2.212c4.195-1.445,7.641-2.952,10.234-4.475l0.297-0.166v-14.008
	l-0.891,0.594c-2.836,1.876-6.064,3.673-9.625,5.36c-3.506,1.655-7.982,2.491-13.297,2.491c-3.75,0-7.078-0.711-9.883-2.117
	c-2.836-1.406-5.234-3.266-7.148-5.555c-1.906-2.281-3.422-4.914-4.475-7.836c-1-2.75-1.572-5.601-1.721-8.515h50.586v-3.735
	c0-5.111-0.531-10.202-1.57-15.121C648.258,132.167,646.455,127.714,643.961,123.867 M600.26,145.488
	c0.053-2.007,0.367-4.253,0.928-6.703c0.641-2.664,1.672-5.238,3.125-7.626c1.438-2.367,3.344-4.405,5.68-6.046
	c2.311-1.625,5.164-2.45,8.477-2.45c3.625,0,6.625,0.754,8.953,2.235c2.312,1.495,4.172,3.421,5.502,5.726
	c1.344,2.328,2.279,4.886,2.826,7.609c0.492,2.544,0.75,4.984,0.781,7.254H600.26z M581.203,113.488
	c-1.469-0.254-3.078-0.382-4.75-0.382c-2.641,0-5.148,0.465-7.477,1.391c-2.305,0.914-4.445,2.097-6.344,3.527
	c-1.914,1.434-3.539,3.027-4.852,4.762c-0.686,0.91-1.266,1.816-1.781,2.711v-12.383h-21.688l-0.139,0.368
	c-0.627,1.559-0.939,3.191-0.939,4.855c0,1.671,0.312,3.305,0.939,4.867l0.139,0.367h9.875v56.257h-9.875l-0.139,0.375
	c-0.627,1.562-0.939,3.203-0.939,4.859c0,1.673,0.312,3.306,0.939,4.867l0.139,0.376h34.221l0.146-0.376
	c0.617-1.555,0.947-3.194,0.947-4.867c0-1.656-0.32-3.297-0.947-4.859l-0.146-0.375h-10.611v-29.41
	c0-4.809,0.562-8.855,1.666-12.022c1.102-3.153,2.506-5.681,4.162-7.52c1.658-1.825,3.492-3.137,5.406-3.898
	c1.953-0.767,3.844-1.161,5.641-1.161c2.195,0,4,0.242,5.359,0.722c1.406,0.493,2.539,0.973,3.393,1.454l0.764,0.426l1.312-13.61
	l-0.391-0.168C584.031,114.136,582.664,113.746,581.203,113.488 M733.859,179.828h-9.539V75.465h-23.422l-0.148,0.32
	c-0.732,1.481-1.1,3.128-1.1,4.902c0,1.785,0.367,3.45,1.1,4.914l0.148,0.328h9.539v35.945c-0.516-0.715-1.117-1.473-1.797-2.265
	c-1.203-1.434-2.734-2.801-4.547-4.079c-1.812-1.273-3.984-2.355-6.436-3.218c-2.471-0.872-5.354-1.312-8.549-1.312
	c-5.094,0-9.672,1.008-13.578,2.992c-3.904,1.977-7.25,4.754-9.961,8.258c-2.695,3.488-4.758,7.687-6.162,12.488
	c-1.393,4.766-2.096,10-2.096,15.543c0,4.71,0.531,9.601,1.562,14.515c1.055,4.953,2.875,9.5,5.416,13.531
	c2.555,4.062,6.029,7.454,10.326,10.078c4.32,2.641,9.789,3.984,16.281,3.984c2.211,0,4.455-0.312,6.666-0.922
	c2.201-0.602,4.295-1.516,6.217-2.688c1.908-1.163,3.625-2.593,5.078-4.226c0.891-1,1.672-2.102,2.328-3.305v9.039h22.688
	l0.15-0.328c0.727-1.477,1.1-3.133,1.1-4.898c0-1.781-0.359-3.43-1.1-4.906L733.859,179.828z M708.922,166.421
	c-1.391,3.594-3.125,6.493-5.125,8.563c-2,2.078-4.17,3.549-6.445,4.352c-2.289,0.837-4.375,1.25-6.18,1.25
	c-3.219,0-6.094-0.742-8.5-2.163c-2.428-1.454-4.516-3.484-6.188-6.048c-1.688-2.579-2.953-5.673-3.75-9.18
	c-0.836-3.539-1.25-7.429-1.25-11.569c0-2.353,0.219-5.23,0.656-8.543c0.438-3.274,1.375-6.442,2.773-9.418
	c1.383-2.949,3.414-5.481,6.047-7.52c2.596-2,6.148-3.031,10.523-3.031c4.195,0,7.625,1.031,10.156,3.031
	c2.586,2.031,4.594,4.586,5.977,7.586c1.398,3.032,2.328,6.247,2.758,9.574c0.438,3.352,0.664,6.411,0.664,9.07
	C711.031,158.077,710.33,162.797,708.922,166.421"/>
</svg>
